<svg fill="none" height="32" viewBox="0 0 32 32" width="32" xmlns="http://www.w3.org/2000/svg"><path d="m16 26.5c-5.799 0-10.5-4.701-10.5-10.5s4.701-10.5 10.5-10.5 10.5 4.701 10.5 10.5-4.701 10.5-10.5 10.5zm0 1.5c6.6274 0 12-5.3726 12-12 0-6.62742-5.3726-12-12-12-6.62742 0-12 5.37258-12 12 0 6.6274 5.37258 12 12 12z" fill="#004ca3"/><g fill="#008293"><path d="m17.3961 13.8818-3.2005.4011c-.1414.0177-.2562.1229-.2862.2622-.0399.1853.0815.3668.2679.4007l.3359.061c.4395.1055.5274.2637.4307.7032l-1.1074 5.2031c-.2901 1.3447.1582 1.9775 1.2129 1.9775.798 0 1.7218-.3603 2.1658-.8599.0211-.0237.0349-.0528.0414-.0838.0389-.1839-.2125-.353-.3913-.2947-.1849.0603-.369.0871-.5151.0871-.4131 0-.5625-.2901-.4571-.7998z"/><path d="m17.5 10.75c0 .8284-.6716 1.5-1.5 1.5s-1.5-.6716-1.5-1.5c0-.82843.6716-1.5 1.5-1.5s1.5.67157 1.5 1.5z"/></g></svg>